# xmcd CD database file
#
# Track frame offsets:
#	182
#	23410
#	37970
#	50665
#	69730
#	93527
#	109080
#	126077
#	145517
#	164492
#	177632
#	203685
#
# Disc length: 2909 seconds
#
# Revision: 4
# Processed by: cddbd v1.5.2PL0 Copyright (c) Steve Scherf et al.
# Submitted via: CDex 1.72
#
DISCID=a40b5b0c
DTITLE=Lee, Peggy (USA-88-Miss Peggy Sings The Blues-bls) - Miss Peggy Lee Sings the Blues
DYEAR=1988
DGENRE=Blues
TTITLE0=See See Rider
TTITLE1=Basin Street Blues
TTITLE2=Squeeze Mee
TTITLE3=You Don't Know
TTITLE4=Fine And Mellow
TTITLE5=Baby Please Come Home
TTITLE6=Kansas City
TTITLE7=Birmingham Jail
TTITLE8=Love Me
TTITLE9=Beale Street
TTITLE10=Tain't Nobody's Bizness
TTITLE11=God Bless the Child
EXTD=YEAR: 1988
EXTT0=
EXTT1=
EXTT2=
EXTT3=
EXTT4=
EXTT5=
EXTT6=
EXTT7=
EXTT8=
EXTT9=
EXTT10=
EXTT11=
PLAYORDER=
